<svg width="32" height="32" viewBox="0 0 32 32" fill="none" xmlns="http://www.w3.org/2000/svg">
<path d="M28.304 8.62013L23.596 10.3041V21.6991L28.304 23.3831C28.4955 23.4513 28.7006 23.4725 28.902 23.445C29.1034 23.4175 29.2953 23.342 29.4615 23.2249C29.6277 23.1078 29.7633 22.9525 29.857 22.7721C29.9507 22.5917 29.9998 22.3914 30 22.1881V9.81412C30 8.93612 29.13 8.32413 28.304 8.62013ZM18.179 5.95313H5.917C4.87815 5.95313 3.88184 6.36581 3.14726 7.10039C2.41268 7.83497 2 8.83127 2 9.87013V22.1331C2 23.172 2.41268 24.1683 3.14726 24.9029C3.88184 25.6374 4.87815 26.0501 5.917 26.0501H18.18C19.2189 26.0501 20.2152 25.6374 20.9497 24.9029C21.6843 24.1683 22.097 23.172 22.097 22.1331V9.87013C22.0967 8.83118 21.6838 7.83488 20.9491 7.10033C20.2144 6.36578 19.2179 5.95312 18.179 5.95313ZM17.167 11.8341C16.7912 11.8341 16.4308 11.6848 16.165 11.4191C15.8993 11.1534 15.75 10.7929 15.75 10.4171C15.75 10.0413 15.8993 9.68089 16.165 9.41515C16.4308 9.14942 16.7912 9.00012 17.167 9.00012C17.5428 9.00012 17.9032 9.14942 18.169 9.41515C18.4347 9.68089 18.584 10.0413 18.584 10.4171C18.584 10.7929 18.4347 11.1534 18.169 11.4191C17.9032 11.6848 17.5428 11.8341 17.167 11.8341Z" fill="white"/>
</svg>
